<?xml version="1.0" standalone="no"?>
<!DOCTYPE svg PUBLIC "-//W3C//DTD SVG 20010904//EN"
 "http://www.w3.org/TR/2001/REC-SVG-20010904/DTD/svg10.dtd">
<svg version="1.0" xmlns="http://www.w3.org/2000/svg"
 width="512.000000pt" height="512.000000pt" viewBox="0 0 512.000000 512.000000"
 preserveAspectRatio="xMidYMid meet">
<metadata>
Created by potrace 1.11, written by Peter Selinger 2001-2013
</metadata>
<g transform="translate(0.000000,512.000000) scale(0.100000,-0.100000)"
fill="#000000" stroke="none">
<path d="M2070 4470 l-85 -109 -124 2 c-124 2 -124 2 -140 -24 -9 -15 -28 -46
-44 -71 l-27 -45 -136 1 c-75 1 -140 -2 -145 -5 -5 -3 -21 -64 -36 -136 l-26
-131 -81 -43 c-45 -23 -96 -51 -114 -61 -33 -18 -34 -18 -60 4 -45 37 -136
144 -159 188 l-22 41 -24 -43 c-34 -60 -49 -110 -49 -172 -1 -56 26 -161 49
-187 7 -8 13 -20 13 -26 0 -5 13 -28 29 -50 16 -23 27 -43 25 -46 -3 -2 -20
-1 -37 3 -36 8 -66 5 -114 -11 -30 -10 -65 -39 -47 -39 5 0 10 -16 11 -35 2
-51 38 -117 96 -181 44 -49 49 -58 41 -81 -7 -21 -21 -30 -61 -41 -28 -8 -63
-26 -77 -41 -24 -25 -24 -27 -9 -59 9 -18 29 -47 45 -64 15 -16 28 -32 28 -35
0 -4 -84 -100 -167 -192 -23 -25 -43 -51 -43 -57 0 -6 34 -55 76 -109 l77 -98
-37 -89 c-20 -49 -36 -95 -36 -103 0 -12 106 -146 121 -153 3 -1 -5 -55 -18
-120 -12 -64 -25 -132 -28 -150 -2 -18 -6 -36 -9 -41 -3 -4 43 -27 102 -51 59
-24 110 -46 115 -50 10 -9 16 -41 22 -130 9 -130 4 -122 110 -166 103 -43 98
-35 110 -149 3 -27 8 -61 10 -75 3 -14 7 -40 10 -59 2 -18 5 -35 7 -37 2 -2
55 -6 118 -10 63 -3 122 -10 130 -14 8 -5 40 -48 71 -97 l55 -88 65 2 c35 1
82 3 103 4 24 1 41 -2 44 -9 2 -7 9 -18 15 -25 7 -7 41 -55 76 -107 35 -52 66
-97 67 -99 2 -2 60 21 130 52 99 44 131 54 145 46 10 -5 87 -52 169 -104 83
-52 156 -95 162 -95 5 0 22 8 36 18 41 26 64 40 97 58 17 9 71 41 121 70 l91
54 118 -55 c65 -30 119 -55 121 -55 1 0 42 54 91 120 l88 121 104 -3 105 -3
48 80 c27 44 52 85 56 92 4 7 54 14 137 18 72 4 131 8 133 10 4 4 42 244 42
267 0 4 5 8 11 8 6 0 25 6 42 14 18 8 58 26 90 40 31 14 57 31 58 38 0 7 2 24
5 38 5 36 12 109 13 148 1 17 5 32 11 32 5 0 33 11 62 24 29 14 80 36 113 50
33 14 59 29 59 33 -1 4 -5 27 -8 51 -3 24 -8 46 -10 50 -2 4 -7 26 -10 48 -7
45 -10 62 -24 120 -9 41 -9 41 50 103 l59 62 -30 92 c-17 51 -31 101 -31 111
0 11 21 45 48 75 26 31 64 78 86 104 l38 48 -28 37 c-15 20 -31 39 -34 42 -3
3 -35 41 -70 85 -36 44 -71 86 -77 93 -18 19 -17 24 22 59 68 62 70 126 7 155
-35 16 -63 25 -108 33 -10 2 -19 4 -19 4 -1 1 30 32 68 71 78 80 117 154 114
220 -2 40 -5 44 -42 61 -44 20 -130 25 -183 9 -37 -10 -36 -8 14 47 59 65 115
210 115 298 0 72 -11 111 -47 172 l-27 46 -12 -29 c-7 -16 -25 -45 -39 -64
-36 -48 -177 -190 -189 -190 -14 0 -177 101 -178 111 -2 14 -3 17 -33 136
l-28 113 -133 -6 -132 -6 -62 100 c-52 84 -65 100 -84 97 -12 -2 -65 -6 -117
-10 l-95 -6 -65 91 c-74 104 -89 122 -98 117 -10 -5 -66 -30 -137 -62 -33 -15
-74 -33 -92 -41 -31 -14 -34 -13 -115 36 -46 27 -87 50 -93 50 -5 0 -46 -22
-90 -49 l-80 -49 -127 64 c-70 35 -129 64 -130 64 -2 -1 -41 -50 -88 -110z
m-1313 -972 c-3 -8 -6 -5 -6 6 -1 11 2 17 5 13 3 -3 4 -12 1 -19z m-1 -394
c-9 -8 -21 -12 -27 -8 -13 7 7 24 29 24 10 0 10 -4 -2 -16z m3675 -17 c-10 -9
-11 -8 -5 6 3 10 9 15 12 12 3 -3 0 -11 -7 -18z m-3618 -4 c-7 -2 -19 -2 -25
0 -7 3 -2 5 12 5 14 0 19 -2 13 -5z"/>
</g>
</svg>
